# xmcd
#
# Track frame offsets: 
#        150
#        17988
#        40791
#        59472
#        76792
#        91681
#        112992
#        134534
#        150757
#        169120
#
# Disc length: 2531 seconds
#
# Revision: 0
# Processed by: cddbd v1.5.2PL0 Copyright (c) Steve Scherf et al.
# Submitted via: ExactAudioCopy v0.95a4
#
DISCID=6b09e10a
DTITLE=Whitey Morgan And The 78's - Hard Times And White Lines
DYEAR=2018
DGENRE=Country
TTITLE0=Honkey Tonk Hell
TTITLE1=Burbon And The Blues
TTITLE2=Around Here
TTITLE3=What Am I Supposed To Do
TTITLE4=Just Got Paid
TTITLE5=Hard To Get High
TTITLE6=Carryin' On
TTITLE7=Fiddler's Inn
TTITLE8=Tired Of The Rain
TTITLE9=Wild And Reckless
EXTD=
EXTT0=
EXTT1=
EXTT2=
EXTT3=
EXTT4=
EXTT5=
EXTT6=
EXTT7=
EXTT8=
EXTT9=
PLAYORDER=
